HIERARCHY
ROOT Bip001_Pelvis
{
  OFFSET 7.937 94.8971 -8.5489
  CHANNELS 6 Xposition Yposition Zposition Zrotation Xrotation Yrotation
  JOINT Bip001_Spine
  {
    OFFSET 1.44608e-005 10.4157 -0.0118244
    CHANNELS 3 Zrotation Xrotation Yrotation
    JOINT Bip001_L_Thigh
    {
      OFFSET 11.2582 -10.4157 0.0118432
      CHANNELS 3 Zrotation Xrotation Yrotation
      JOINT Bip001_L_Calf
      {
        OFFSET -0.720717 -44.8687 0.366937
        CHANNELS 3 Zrotation Xrotation Yrotation
        JOINT Bip001_L_Foot
        {
          OFFSET -0.664439 -41.3745 -3.62995
          CHANNELS 3 Zrotation Xrotation Yrotation
          JOINT Bip001_L_Toe0
          {
            OFFSET 0.0541047 -10.4146 13.4033
            CHANNELS 3 Zrotation Xrotation Yrotation
            End Site
            {
              OFFSET -1.04503e-005 0 7.70137
            }
          }
        }
      }
    }
    JOINT Bip001_R_Thigh
    {
      OFFSET -11.2582 -10.4156 0.0118122
      CHANNELS 3 Zrotation Xrotation Yrotation
      JOINT Bip001_R_Calf
      {
        OFFSET 0.72059 -44.8687 0.36676
        CHANNELS 3 Zrotation Xrotation Yrotation
        JOINT Bip001_R_Foot
        {
          OFFSET 0.664321 -41.3745 -3.62979
          CHANNELS 3 Zrotation Xrotation Yrotation
          JOINT Bip001_R_Toe0
          {
            OFFSET -0.05417 -10.4146 13.4033
            CHANNELS 3 Zrotation Xrotation Yrotation
            End Site
            {
              OFFSET -1.04873e-005 0 7.70137
            }
          }
        }
      }
    }
    JOINT Bip001_Spine1
    {
      OFFSET 1.90638e-005 14.8539 1.10727
      CHANNELS 3 Zrotation Xrotation Yrotation
      JOINT Bip001_Spine2
      {
        OFFSET 2.28934e-005 14.7848 -1.7233
        CHANNELS 3 Zrotation Xrotation Yrotation
        JOINT Bip001_Neck
        {
          OFFSET 2.24514e-005 15.6905 -0.498826
          CHANNELS 3 Zrotation Xrotation Yrotation
          JOINT Bip001_L_Clavicle
          {
            OFFSET 6.17691 -0.000591152 0.00852867
            CHANNELS 3 Zrotation Xrotation Yrotation
            JOINT Bip001_L_UpperArm
            {
              OFFSET 11.773 -0.0611878 0.00197697
              CHANNELS 3 Zrotation Xrotation Yrotation
              JOINT Bip001_L_Forearm
              {
                OFFSET 26.4515 0.0817568 -2.19579
                CHANNELS 3 Zrotation Xrotation Yrotation
                JOINT Bip001_L_Hand
                {
                  OFFSET 32.8677 0.156744 1.67112
                  CHANNELS 3 Zrotation Xrotation Yrotation
                  JOINT Bip001_L_Finger0
                  {
                    OFFSET 6.16268 -2.25226 6.01674
                    CHANNELS 3 Zrotation Xrotation Yrotation
                    End Site
                    {
                      OFFSET 4.30499 -1.46662 0.618148
                    }
                  }
                  JOINT Bip001_L_Finger1
                  {
                    OFFSET 11.2957 -0.718374 -0.201963
                    CHANNELS 3 Zrotation Xrotation Yrotation
                    End Site
                    {
                      OFFSET 6.31952 -0.405163 -0.0802303
                    }
                  }
                }
              }
            }
          }
          JOINT Bip001_R_Clavicle
          {
            OFFSET -6.17691 -0.000574027 0.00851165
            CHANNELS 3 Zrotation Xrotation Yrotation
            JOINT Bip001_R_UpperArm
            {
              OFFSET -11.773 -0.0611516 0.00194365
              CHANNELS 3 Zrotation Xrotation Yrotation
              JOINT Bip001_R_Forearm
              {
                OFFSET -26.4514 0.0822334 -2.19736
                CHANNELS 3 Zrotation Xrotation Yrotation
                JOINT Bip001_R_Hand
                {
                  OFFSET -32.8677 0.156817 1.67144
                  CHANNELS 3 Zrotation Xrotation Yrotation
                  JOINT Bip001_R_Finger0
                  {
                    OFFSET -6.1627 -2.25224 6.0167
                    CHANNELS 3 Zrotation Xrotation Yrotation
                    End Site
                    {
                      OFFSET -4.30499 -1.46662 0.618134
                    }
                  }
                  JOINT Bip001_R_Finger1
                  {
                    OFFSET -11.2958 -0.718344 -0.201994
                    CHANNELS 3 Zrotation Xrotation Yrotation
                    End Site
                    {
                      OFFSET -6.31952 -0.405146 -0.0802475
                    }
                  }
                }
              }
            }
          }
          JOINT Bip001_Head
          {
            OFFSET 1.11782e-005 11.4912 2.09908
            CHANNELS 3 Zrotation Xrotation Yrotation
            End Site
            {
              OFFSET 2.95144e-005 21.2823 -2.83069e-005
            }
          }
        }
      }
    }
  }
}
MOTION
Frames:	14
Frame Time:	0.04
7.86968 95.2202 -9.16333 0.0456243 -2.90989 1.45257 -0.106579 1.46303 -0.332095 5.5917 -8.01104 8.83933 -1.00438 16.9187 -1.11417 -2.87798 -6.52589 0.379732 0.679586 -9.83675 -0.0594221 -7.93853 -6.15194 -1.91709 -0.39471 16.9653 4.96913 1.11054 -8.64995 -10.318 -0.849513 -11.5376 0.184953 -0.319107 2.927 -0.665108 -0.319108 2.927 -0.665108 -2.52172 1.68765 -0.704153 -27.3921 3.81277 -11.6679 -45.209 40.0035 0.803907 11.5011 -3.95058 -26.751 -0.0205985 -0.393959 -2.83851 -3.18055e-015 3.18055e-015 3.18055e-015 -6.36111e-015 3.18056e-015 1.59028e-015 33.4435 5.36422 14.7088 55.5318 28.4256 -22.2883 0.794916 -23.9454 44.6706 -1.42006 3.2251 -21.7923 1.78906e-015 3.18055e-015 1.19271e-015 9.93923e-016 0 1.19271e-015 -0.997015 5.04371 -1.19982 
8.09078 95.1594 -9.14115 0.139722 -2.80213 2.26222 -0.171763 1.41053 -0.239945 5.39945 -8.40613 8.60861 -0.940805 17.3265 -1.60076 -2.68876 -6.66429 0.251421 0.701169 -9.83674 -0.087945 -8.1421 -6.06432 -2.54342 -0.42952 17.1961 4.98964 1.16486 -8.89139 -10.4987 -0.772225 -11.5445 0.0969229 -0.440187 2.82198 -0.478538 -0.440187 2.82198 -0.478537 -2.53822 1.84131 -0.196274 -27.3145 3.88963 -12.1675 -45.5771 39.7967 1.26756 11.7761 -2.90795 -26.7274 -0.788305 -0.447489 -3.12851 6.36111e-015 -9.54166e-015 -0 6.36111e-015 -6.36111e-015 -0 33.2451 4.9236 14.3895 54.7316 24.2784 -22.7359 -6.41417 -15.6411 51.6565 -5.67991 4.3678 -18.4579 -1.59028e-015 -9.54166e-015 -0 -1.59028e-015 -1.27222e-014 -0 -1.17576 4.90192 -0.66653 
8.31267 95.0979 -9.10715 0.154361 -2.57664 3.4418 -0.224379 1.32059 -0.157465 5.25895 -8.9936 8.51688 -0.794019 17.8527 -2.38644 -2.47534 -6.80861 -0.0580943 0.720652 -9.85301 -0.139649 -8.23527 -5.88592 -2.66719 -0.327264 17.2872 4.49782 1.17208 -9.10799 -11.042 -0.654919 -11.5445 -0.0197456 -0.530293 2.64191 -0.311725 -0.530291 2.6419 -0.311726 -2.58732 2.05292 0.297851 -27.2963 3.86182 -12.4948 -45.9268 39.441 1.73558 11.9791 -1.54721 -26.5577 -1.64149 -0.377964 -2.78398 -3.18055e-015 9.54166e-015 -1.59028e-015 -3.18055e-015 1.27222e-014 -3.18055e-015 33.0587 4.44412 14.1279 52.7627 18.7995 -22.531 -13.6293 -7.88513 60.9052 -8.82401 5.64555 -14.9824 -9.54166e-015 3.18055e-015 6.36111e-015 -6.36111e-015 0 6.36111e-015 -1.30808 4.8995 -0.168393 
8.57552 95.0122 -9.0537 0.133184 -2.29157 4.96856 -0.265328 1.20731 -0.0558735 5.01851 -9.76107 8.56427 -0.401557 18.5591 -3.92437 -2.22901 -7.02737 -0.221207 0.742428 -9.86086 -0.13259 -8.30615 -5.6374 -3.2547 -0.381994 17.3994 4.21561 1.20747 -9.39296 -11.6308 -0.499951 -11.5449 -0.179033 -0.592299 2.41489 -0.106993 -0.592299 2.41489 -0.106996 -2.67238 2.18999 0.625391 -27.3571 3.87203 -12.727 -46.8096 40.0237 3.07917 12.7517 -0.998327 -26.3895 -2.24103 -0.422655 -2.95415 -3.18055e-015 -3.18055e-015 4.77083e-015 -3.18055e-015 -3.18056e-015 4.77083e-015 32.7944 4.07744 13.8974 49.743 12.0554 -21.4378 -21.2893 -0.940407 71.9149 -11.3969 6.63538 -11.3582 -3.18055e-015 -6.36111e-015 3.18055e-015 -6.36111e-015 -9.54167e-015 -0 -1.44645 4.91773 0.159234 
9.03965 94.9324 -8.88221 0.611497 -2.16461 6.51178 -0.406347 1.1425 0.137035 4.13485 -9.99113 7.7862 -0.147376 18.6508 -4.72652 -1.9133 -7.01746 -0.311505 0.747595 -9.88195 -0.196625 -9.00411 -5.2529 -4.25823 -0.351089 17.843 4.07676 1.31141 -9.94876 -12.0138 -0.347578 -11.5458 -0.322442 -0.85684 2.28395 0.282676 -0.856834 2.28393 0.28267 -2.60208 2.10561 0.734246 -27.518 3.95717 -12.6307 -47.1996 39.1149 3.40421 12.6646 0.260398 -25.6578 -2.70536 -0.345717 -3.02165 5.29669e-031 -9.54166e-015 3.18055e-015 7.94503e-031 -9.54167e-015 4.77083e-015 32.0304 3.9539 13.7104 46.5908 4.59412 -19.3351 -29.4419 4.17164 83.9481 -14.9589 7.74335 -8.39221 -6.36111e-015 -2.78299e-015 1.59028e-015 -3.18055e-015 -1.98785e-015 -0 -1.73878 4.97824 0.36726 
9.36059 94.825 -8.89154 0.529725 -2.10926 9.56072 -0.440219 1.1054 0.131505 3.71365 -11.0104 5.26608 -0.25738 19.578 -5.32907 -1.48997 -7.11934 -0.208634 0.76791 -9.87997 -0.163317 -9.05835 -4.31398 -6.0192 -0.409107 17.69 3.74318 1.34191 -10.2421 -12.7198 -0.132619 -11.5544 -0.511864 -0.896428 2.20973 0.273265 -0.896422 2.20972 0.273257 -2.4325 1.45186 0.588727 -27.7843 4.48237 -12.1944 -47.8976 40.2329 4.89047 13.216 -0.100317 -25.8403 -2.95315 -0.402569 -1.97992 0 0 -4.77083e-015 -3.18055e-015 3.18056e-015 -1.59028e-015 31.5552 4.47353 13.3257 44.8038 4.95718 -14.9195 -37.6005 1.69936 90.6196 -20.4465 9.93121 -7.22731 -1.59028e-015 7.7526e-015 -2.38542e-015 -1.59028e-015 7.25564e-015 -7.95139e-016 -1.90584 5.68063 0.345447 
9.67913 94.734 -8.96811 0.450699 -1.15171 10.8311 -0.545836 0.879515 0.591333 3.32173 -12.2368 6.11813 0.432919 20.1028 -7.23695 -1.24063 -7.1757 -0.885499 0.765725 -9.91013 -0.225964 -9.1222 -4.75185 -5.36252 -0.161657 17.9273 2.38107 1.36927 -10.4762 -13.6801 0.0664953 -11.5444 -0.710194 -1.08629 1.75335 1.19373 -1.08629 1.75335 1.19373 -2.56656 1.43628 0.445309 -27.58 4.55903 -12.4497 -48.3012 40.4571 5.78338 13.589 0.520997 -25.5484 -3.25877 -0.428641 -1.61092 6.36111e-015 9.54166e-015 -3.18055e-015 6.36111e-015 1.27222e-014 -3.18055e-015 31.4006 4.39791 13.1105 42.1129 5.19046 -9.28549 -45.5595 -2.0882 95.3712 -24.8199 10.5018 -6.19286 3.97569e-015 -6.75868e-015 6.36111e-015 3.18055e-015 -9.1441e-015 3.18055e-015 -1.29389 5.42026 -0.00301073 
10.0686 94.6374 -8.91772 0.427015 -0.542612 13.1752 -0.640925 0.741042 0.873315 2.70066 -13.2758 4.5036 0.44194 20.6473 -7.87591 -0.835413 -7.1794 -1.16855 0.775266 -9.94229 -0.285131 -9.36716 -4.40982 -6.34316 0.0149259 17.9616 1.63028 1.37707 -10.8576 -14.4619 0.277772 -11.5529 -0.882934 -1.23401 1.47256 1.75912 -1.23402 1.47257 1.75913 -2.74217 0.896375 0.274836 -27.296 4.98771 -12.1905 -48.8096 40.905 6.36731 13.9645 0.654115 -25.1192 -3.52304 -0.292488 -0.876283 -1.59028e-015 -3.18055e-015 -3.18055e-015 -1.59028e-015 -3.18056e-015 -1.59028e-015 30.8025 4.89152 13.1841 38.7753 5.24508 -2.56206 -49.4197 -5.3296 98.1617 -27.7763 11.4768 -5.42998 -2.64834e-031 -1.59028e-015 -9.54166e-015 3.18055e-015 -3.18056e-015 -3.18055e-015 -1.10344 5.88326 -0.257053 
10.4688 94.5263 -8.92832 0.330473 0.298966 15.6649 -0.73878 0.536441 1.16057 1.89012 -14.506 2.43238 0.457572 21.1785 -8.52598 -0.435186 -7.13209 -1.20787 0.790435 -9.96587 -0.301494 -9.53821 -4.27752 -7.34691 -0.0277124 18.1245 0.778123 1.53166 -11.3269 -15.1974 0.546495 -11.5523 -1.10677 -1.36724 1.05886 2.33453 -1.36724 1.05886 2.33454 -3.04156 0.938211 0.168792 -27.2001 4.97487 -12.2315 -48.5491 40.9429 6.59903 14.0377 1.95904 -24.5539 -3.36067 -0.198539 -0.597409 -3.18055e-015 3.18055e-015 -3.18055e-015 -1.59028e-015 0 -1.59028e-015 30.0619 5.01287 14.1062 34.7657 4.25455 4.23206 -52.5034 -8.0008 99.5726 -29.5349 12.915 -6.48396 6.36111e-015 -9.54166e-015 6.36111e-015 3.18055e-015 -1.27222e-014 3.18055e-015 -0.883465 5.81896 -0.511766 
10.9506 94.4008 -8.89394 0.411966 0.981152 18.1601 -0.864839 0.414238 1.47079 0.670397 -15.3824 3.93596 2.31755 21.423 -11.6263 -0.429569 -7.06509 -2.75329 0.783404 -10.012 -0.41422 -9.96365 -3.9965 -8.27288 0.0876934 18.437 -0.188792 1.76597 -11.905 -15.8592 0.81681 -11.5425 -1.36051 -1.55517 0.808283 2.95615 -1.55517 0.808282 2.95615 -3.4301 0.812901 0.119717 -26.9083 5.07691 -12.1317 -47.2845 38.6964 4.96997 13.0873 4.75371 -23.1013 -3.33662 0.0575033 -0.896796 -0 0 4.77083e-015 -2.64834e-031 3.18056e-015 4.77083e-015 28.7406 5.24815 15.3231 30.5714 3.1427 11.2851 -55.2891 -9.58371 99.127 -30.7159 14.4886 -8.42893 -6.36111e-015 3.18055e-015 -6.36111e-015 -6.36111e-015 6.36111e-015 -3.18055e-015 -0.528017 5.74826 -0.769405 
11.4039 94.2894 -8.88633 0.476607 1.72371 20.7162 -0.998227 0.264748 1.81821 -0.508835 -16.1956 1.19596 2.21818 21.6335 -11.5015 -0.106314 -6.87828 -3.07854 0.785793 -10.0283 -0.438096 -10.3488 -3.71567 -9.05296 0.223675 18.7601 -1.16141 1.85835 -12.4563 -16.7755 1.19365 -11.545 -1.63559 -1.73922 0.501608 3.65107 -1.73922 0.501608 3.65107 -3.52412 0.8051 -0.104837 -26.7382 4.85597 -11.6251 -47.3323 40.1918 4.86444 13.6185 5.56335 -22.6678 -4.21206 0.032115 -0.613871 -1.59028e-015 3.18055e-015 3.18055e-015 2.64834e-031 -3.18056e-015 4.77083e-015 26.8968 5.30319 16.5036 26.5341 0.92157 17.0486 -59.198 -10.0507 97.6041 -29.6599 14.7473 -10.4227 1.59028e-015 9.54166e-015 -3.18055e-015 6.36111e-015 1.59028e-014 1.59028e-015 -0.379992 5.49125 -1.05732 
11.8354 94.2142 -8.9016 0.437224 2.43463 23.398 -1.14651 0.190012 2.15097 -1.64943 -16.9408 -0.31642 2.60139 21.614 -12.3682 0.143038 -6.56794 -3.79522 0.788391 -10.0614 -0.536697 -10.7091 -3.27735 -9.68364 0.697774 18.7225 -2.71548 1.94849 -12.8135 -17.5448 1.47266 -11.55 -1.79057 -1.97733 0.342564 4.3164 -1.97732 0.342565 4.3164 -3.49825 0.222378 -0.659754 -26.7062 5.14749 -10.9719 -46.8466 41.108 4.7873 13.6553 4.48427 -22.9658 -4.70588 -0.158628 -0.277644 7.95139e-016 0 3.18055e-015 -7.95139e-016 -3.18056e-015 4.77083e-015 24.6556 5.9615 17.9079 22.917 -1.66199 21.9273 -62.246 -8.74341 95.03 -30.662 15.2532 -11.1572 -5.56597e-015 0 -5.56597e-015 -5.56597e-015 0 -0 -0.204619 5.68289 -1.61784 
12.1211 94.1876 -8.78836 0.305972 3.21936 26.1092 -1.32432 0.106997 2.48162 -2.5001 -17.5601 -0.902465 3.00127 21.3286 -13.715 0.35811 -6.16539 -4.88658 0.777622 -10.12 -0.719227 -10.8314 -2.71123 -10.523 1.08855 18.3684 -3.88203 1.88359 -13.0958 -18.4919 1.75363 -11.5518 -2.00156 -2.26926 0.164437 4.97701 -2.26926 0.164438 4.97701 -2.93666 -0.417957 -1.50764 -27.2109 5.34122 -10.0329 -46.2531 42.5425 4.73023 13.6934 3.01568 -23.4464 -4.79466 -0.296808 0.245722 -7.95139e-016 -3.18055e-015 -0 -7.95139e-016 0 -0 22.8323 6.93298 19.5826 18.3266 -4.85237 25.4007 -64.8812 -5.36456 91.2339 -33.0839 16.2599 -11.4681 -3.97569e-016 -1.27222e-014 1.19271e-015 3.97569e-016 -9.54167e-015 1.98785e-015 -0.537586 6.08563 -2.16476 
12.2478 94.1742 -8.80154 -0.0535184 4.13175 28.614 -1.45818 -0.00113813 2.81132 -3.04307 -18.4902 -1.39906 2.94883 21.1603 -14.3988 0.646905 -5.64992 -6.26741 0.759543 -10.2335 -1.03702 -10.7812 -2.57889 -10.8974 1.46153 18.0989 -5.35906 1.78693 -13.2792 -19.4429 2.05547 -11.5501 -2.20316 -2.46366 -0.0632912 5.63821 -2.46366 -0.0632879 5.63822 -2.66795 -1.06983 -2.21353 -27.627 5.69534 -9.39238 -45.511 41.948 4.37118 13.6728 3.65807 -23.5839 -4.07303 -0.180026 -0.10492 2.38542e-015 0 -0 0 0 -0 20.5949 7.63615 21.1788 14.7266 -7.81879 27.74 -65.2552 1.29112 85.4974 -34.6899 16.879 -11.1436 8.74652e-015 0 9.54166e-015 9.54166e-015 -3.18056e-015 1.23246e-014 -0.598062 6.58319 -2.73179 
